<svg id="Layer_1" enable-background="new 0 0 512 512" height="512" viewBox="0 0 512 512" width="512" xmlns="http://www.w3.org/2000/svg"><g><g><path d="m445.001 58c-8.284 0-15-6.716-15-15v-28c0-8.284 6.716-15 15-15s15 6.716 15 15v28c0 8.284-6.716 15-15 15z" fill="#001737"/></g><g><path d="m497 152h-415c-8.284 0-15-6.716-15-15v-92c0-8.284 6.716-15 15-15h415c8.284 0 15 6.716 15 15v92c0 8.284-6.716 15-15 15z" fill="#4793ff"/></g><g><path d="m67 58c-8.284 0-15-6.716-15-15v-28c0-8.284 6.716-15 15-15s15 6.716 15 15v28c0 8.284-6.716 15-15 15z" fill="#00347b"/></g><path d="m497 30h-241v122h241c8.284 0 15-6.716 15-15v-92c0-8.284-6.716-15-15-15z" fill="#525cdd"/><g><path d="m120 152h-105c-8.284 0-15-6.716-15-15v-92c0-8.284 6.716-15 15-15h105z" fill="#ffde46"/></g><g><path d="m497 512h-482c-8.284 0-15-6.716-15-15v-375h512v375c0 8.284-6.716 15-15 15z" fill="#00429d"/></g><path d="m256 122v390h241c8.284 0 15-6.716 15-15v-375z" fill="#00347b"/><g><path d="m106 212h-31c-8.284 0-15-6.716-15-15s6.716-15 15-15h31c8.284 0 15 6.716 15 15s-6.716 15-15 15z" fill="#bee75e"/></g><g><path d="m345.991 212h-179.991c-8.284 0-15-6.716-15-15s6.716-15 15-15h179.991c8.284 0 15 6.716 15 15s-6.716 15-15 15z" fill="#bee75e"/></g><g><path d="m437 212h-31c-8.284 0-15-6.716-15-15s6.716-15 15-15h31c8.284 0 15 6.716 15 15s-6.716 15-15 15z" fill="#00cb75"/></g><g><path d="m106 272h-31c-8.284 0-15-6.716-15-15s6.716-15 15-15h31c8.284 0 15 6.716 15 15s-6.716 15-15 15z" fill="#ff8856"/></g><g><path d="m345.991 272h-179.991c-8.284 0-15-6.716-15-15s6.716-15 15-15h179.991c8.284 0 15 6.716 15 15s-6.716 15-15 15z" fill="#ff8856"/></g><g><path d="m437 272h-31c-8.284 0-15-6.716-15-15s6.716-15 15-15h31c8.284 0 15 6.716 15 15s-6.716 15-15 15z" fill="#ff435b"/></g><g><path d="m106 332h-31c-8.284 0-15-6.716-15-15s6.716-15 15-15h31c8.284 0 15 6.716 15 15s-6.716 15-15 15z" fill="#bee75e"/></g><g><path d="m345.991 332h-179.991c-8.284 0-15-6.716-15-15s6.716-15 15-15h179.991c8.284 0 15 6.716 15 15s-6.716 15-15 15z" fill="#bee75e"/></g><g><path d="m437 332h-31c-8.284 0-15-6.716-15-15s6.716-15 15-15h31c8.284 0 15 6.716 15 15s-6.716 15-15 15z" fill="#00cb75"/></g><g><path d="m106 391.999h-31c-8.284 0-15-6.716-15-15s6.716-15 15-15h31c8.284 0 15 6.716 15 15s-6.716 15-15 15z" fill="#ff8856"/></g><g><path d="m345.991 391.999h-179.991c-8.284 0-15-6.716-15-15s6.716-15 15-15h179.991c8.284 0 15 6.716 15 15s-6.716 15-15 15z" fill="#ff8856"/></g><g><path d="m437 391.999h-31c-8.284 0-15-6.716-15-15s6.716-15 15-15h31c8.284 0 15 6.716 15 15s-6.716 15-15 15z" fill="#ff435b"/></g><g><path d="m106 452h-31c-8.284 0-15-6.716-15-15s6.716-15 15-15h31c8.284 0 15 6.716 15 15s-6.716 15-15 15z" fill="#ff8856"/></g><g><path d="m345.991 452h-179.991c-8.284 0-15-6.716-15-15s6.716-15 15-15h179.991c8.284 0 15 6.716 15 15s-6.716 15-15 15z" fill="#ff8856"/></g><g><path d="m437 452h-31c-8.284 0-15-6.716-15-15s6.716-15 15-15h31c8.284 0 15 6.716 15 15s-6.716 15-15 15z" fill="#ff435b"/></g><path d="m345.991 182h-89.991v30h89.991c8.284 0 15-6.716 15-15s-6.716-15-15-15z" fill="#00cb75"/><path d="m345.991 242h-89.991v30h89.991c8.284 0 15-6.716 15-15s-6.716-15-15-15z" fill="#ff435b"/><path d="m345.991 302h-89.991v30h89.991c8.284 0 15-6.716 15-15s-6.716-15-15-15z" fill="#00cb75"/><g fill="#ff435b"><path d="m345.991 361.999h-89.991v30h89.991c8.284 0 15-6.716 15-15s-6.716-15-15-15z"/><path d="m345.991 422h-89.991v30h89.991c8.284 0 15-6.716 15-15s-6.716-15-15-15z"/></g></g></svg>